# xmcd CD database file
#
# Track frame offsets:
#	150
#	16387
#	32570
#	51587
#	65862
#	86237
#	105842
#	123562
#	145912
#	161855
#	179427
#	201477
#	222675
#
# Disc length: 3249 seconds
#
# Revision: 11
# Processed by: cddbd v1.5.2PL0 Copyright (c) Steve Scherf et al.
# Submitted via: CDex 1.70beta3
#
DISCID=cf0caf0d
DTITLE=サザンオールスターズ - Southern All Stars
DYEAR=1990
DGENRE=Rock
TTITLE0=フリフリ '65
TTITLE1=愛は花のように (Ole!)
TTITLE2=悪魔の恋
TTITLE3=忘れられた Big Wave
TTITLE4=YOU
TTITLE5=ナチカサヌ恋歌
TTITLE6=OH, GIRL (悲しい胸のスクリーン)
TTITLE7=女神たちへの情歌 (報道されないY型の彼方へ)
TTITLE8=政治家
TTITLE9=MARIKO
TTITLE10=さよならベイビー
TTITLE11=GORILLA
TTITLE12=逢いたくなった時に君はここにいない
EXTD=YEAR: 1990
EXTT0=
EXTT1=
EXTT2=
EXTT3=
EXTT4=
EXTT5=
EXTT6=
EXTT7=
EXTT8=
EXTT9=
EXTT10=
EXTT11=
EXTT12=
PLAYORDER=
